<svg width="960" height="88" viewBox="0 0 960 88" fill="none" xmlns="http://www.w3.org/2000/svg">
<path d="M934.303 0H25.6968C11.5049 0 0 17.2293 0 38.4827V49.5173C0 70.7707 11.5049 88 25.6968 88H934.303C948.495 88 960 70.7707 960 49.5173V38.4827C960 17.2293 948.495 0 934.303 0Z" fill="#593517"/>
<path d="M931.167 13.3484H28.8328C17.6492 13.3484 8.58301 26.9255 8.58301 43.6738V44.3264C8.58301 61.0746 17.6492 74.6518 28.8328 74.6518H931.167C942.35 74.6518 951.417 61.0746 951.417 44.3264V43.6738C951.417 26.9255 942.35 13.3484 931.167 13.3484Z" fill="#42250F"/>
<path d="M22.3159 22.9788C22.2432 22.8305 22.164 22.6822 22.0848 22.5339C22.0188 22.4053 21.8933 22.524 21.8867 22.6525C21.8867 22.8206 21.8867 22.9788 21.8867 23.1469C21.8867 23.7698 22.5404 23.4139 22.3225 22.9689L22.3159 22.9788Z" fill="#593517"/>
<path d="M22.6138 15.6721C22.013 15.6721 21.4386 16.4631 21.4716 17.3827C21.498 18.3121 21.9734 19.0932 22.6138 19.0932C23.2146 19.0932 23.7891 18.3022 23.756 17.3827C23.7296 16.4532 23.2542 15.6721 22.6138 15.6721Z" fill="#593517"/>
<path d="M24.8121 15.8599C23.6369 15.8599 23.6369 18.5987 24.8121 18.5987C25.9873 18.5987 25.9873 15.8599 24.8121 15.8599Z" fill="#593517"/>
<path d="M26.5222 20.0422C25.479 20.0422 25.4724 22.4746 26.5222 22.4746C27.572 22.4746 27.572 20.0422 26.5222 20.0422Z" fill="#593517"/>
<path d="M28.6151 25.876C27.6973 25.876 27.6973 28.0117 28.6151 28.0117C29.5328 28.0117 29.5328 25.876 28.6151 25.876Z" fill="#593517"/>
<path d="M39.0674 20.3982C37.7601 20.3982 37.7601 23.4337 39.0674 23.4337C40.3747 23.4337 40.3747 20.3982 39.0674 20.3982Z" fill="#593517"/>
<path d="M34.3325 17.8669C34.1014 17.8669 34.1014 18.4009 34.3325 18.4009C34.5636 18.4009 34.5636 17.8669 34.3325 17.8669Z" fill="#593517"/>
<path d="M34.0556 19.2314C34.016 19.2314 34.016 19.3303 34.0556 19.3303C34.0952 19.3303 34.0952 19.2314 34.0556 19.2314Z" fill="#593517"/>
<path d="M31.4741 28.1797C29.8433 28.1797 29.8367 31.9765 31.4741 31.9765C33.1115 31.9765 33.1115 28.1797 31.4741 28.1797Z" fill="#593517"/>
<path d="M26.0269 36.1294C24.4357 36.1294 24.4291 39.8373 26.0269 39.8373C27.6247 39.8373 27.6247 36.1294 26.0269 36.1294Z" fill="#593517"/>
<path d="M18.2093 35.6152C16.7369 35.6152 16.7303 39.0462 18.2093 39.0462C19.6882 39.0462 19.6882 35.6152 18.2093 35.6152Z" fill="#593517"/>
<path d="M17.7343 29.3169C17.457 28.8917 17.1731 28.7335 16.7836 28.6742C16.4138 28.6248 16.0639 29.0104 15.879 29.4553C15.6545 29.9794 15.6876 30.4738 15.747 31.0472C15.8658 32.214 16.8958 32.6392 17.4966 32.1151C18.1569 31.5317 18.2757 30.1376 17.7409 29.3169H17.7343Z" fill="#593517"/>
<path d="M18.1037 22.0298C16.7766 22.0298 16.7766 25.1147 18.1037 25.1147C19.4308 25.1147 19.4308 22.0298 18.1037 22.0298Z" fill="#593517"/>
<path d="M13.3172 37.1479C11.6072 37.1479 11.6006 41.1327 13.3172 41.1327C15.0339 41.1327 15.0339 37.1479 13.3172 37.1479Z" fill="#593517"/>
<path d="M15.2122 49.7151C14.9085 48.667 13.8851 48.7758 13.4758 49.5569C13.073 50.3381 13.2645 51.8706 14.0238 52.0288C14.3275 52.0981 14.585 52.2464 14.8689 52.3947C15.199 52.5628 15.615 52.1079 15.582 51.5839C15.549 50.9214 15.3839 50.3282 15.2056 49.725L15.2122 49.7151Z" fill="#593517"/>
<path d="M18.3746 51.208C17.0607 51.208 17.0607 54.2633 18.3746 54.2633C19.6885 54.2633 19.6885 51.208 18.3746 51.208Z" fill="#593517"/>
<path d="M22.0654 49.2307C22.0257 49.2307 22.0257 49.3296 22.0654 49.3296C22.105 49.3296 22.105 49.2307 22.0654 49.2307Z" fill="#593517"/>
<path d="M26.3569 61.5901C26.3172 61.5901 26.3172 61.689 26.3569 61.689C26.3965 61.689 26.3965 61.5901 26.3569 61.5901Z" fill="#593517"/>
<path d="M20.9097 63.5381C19.6421 63.5381 19.6421 66.4846 20.9097 66.4846C22.1774 66.4846 22.1774 63.5381 20.9097 63.5381Z" fill="#593517"/>
<path d="M17.6615 60.2354C17.021 60.2354 17.021 61.7185 17.6615 61.7185C18.3019 61.7185 18.3019 60.2354 17.6615 60.2354Z" fill="#593517"/>
<path d="M27.7305 49.7546C26.5156 49.7546 26.5156 52.5825 27.7305 52.5825C28.9453 52.5825 28.9453 49.7546 27.7305 49.7546Z" fill="#593517"/>
<path d="M30.9784 60.5122C30.9388 60.5122 30.9388 60.6111 30.9784 60.6111C31.0181 60.6111 31.0181 60.5122 30.9784 60.5122Z" fill="#593517"/>
<path d="M34.0552 63.2214C32.2329 63.2214 32.2329 67.4632 34.0552 67.4632C35.8775 67.4632 35.8775 63.2214 34.0552 63.2214Z" fill="#593517"/>
<path d="M39.8331 67.7798C37.958 67.7798 37.958 72.1402 39.8331 72.1402C41.7082 72.1402 41.7082 67.7798 39.8331 67.7798Z" fill="#593517"/>
<path d="M44.5669 64.2498C42.5663 64.2498 42.5597 68.9068 44.5669 68.9068C46.574 68.9068 46.574 64.2498 44.5669 64.2498Z" fill="#593517"/>
<path d="M46.2173 56.4387C44.8638 56.4387 44.8638 59.5929 46.2173 59.5929C47.5708 59.5929 47.5708 56.4387 46.2173 56.4387Z" fill="#593517"/>
<path d="M40.4932 53.324C39.2256 53.324 39.2256 56.2705 40.4932 56.2705C41.7609 56.2705 41.7609 53.324 40.4932 53.324Z" fill="#593517"/>
<path d="M56.999 64.4377C54.9456 64.4377 54.9456 69.2135 56.999 69.2135C59.0524 69.2135 59.0524 64.4377 56.999 64.4377Z" fill="#593517"/>
<path d="M61.1259 59.0291C61.0863 59.0291 61.0863 59.1279 61.1259 59.1279C61.1655 59.1279 61.1655 59.0291 61.1259 59.0291Z" fill="#593517"/>
<path d="M65.1998 59.1577C63.1398 59.1577 63.1332 63.9532 65.1998 63.9532C67.2664 63.9532 67.2664 59.1577 65.1998 59.1577Z" fill="#593517"/>
<path d="M65.9721 72.4666C65.9325 72.4666 65.9325 72.5654 65.9721 72.5654C66.0117 72.5654 66.0117 72.4666 65.9721 72.4666Z" fill="#593517"/>
<path d="M70.4288 70.5188C68.6461 70.5188 68.6461 74.6716 70.4288 74.6716C72.2115 74.6716 72.2115 70.5188 70.4288 70.5188Z" fill="#593517"/>
<path d="M77.8564 69.085C77.8168 69.085 77.8168 69.1838 77.8564 69.1838C77.896 69.1838 77.896 69.085 77.8564 69.085Z" fill="#593517"/>
<path d="M82.2007 61.1353C80.5699 61.1353 80.5633 64.9321 82.2007 64.9321C83.8381 64.9321 83.8381 61.1353 82.2007 61.1353Z" fill="#593517"/>
<path d="M88.6384 68.3135C86.6577 68.3135 86.6511 72.9211 88.6384 72.9211C90.6258 72.9211 90.6258 68.3135 88.6384 68.3135Z" fill="#593517"/>
<path d="M92.6528 64.6357C92.6131 64.6357 92.6131 64.7346 92.6528 64.7346C92.6924 64.7346 92.6924 64.6357 92.6528 64.6357Z" fill="#593517"/>
<path d="M95.7357 60.9277C94.4878 60.9277 94.4878 63.8248 95.7357 63.8248C96.9836 63.8248 96.9836 60.9277 95.7357 60.9277Z" fill="#593517"/>
<path d="M101.348 65.2188C99.5455 65.2188 99.5455 69.4111 101.348 69.4111C103.15 69.4111 103.15 65.2188 101.348 65.2188Z" fill="#593517"/>
<path d="M117.742 69.4805C116.27 69.4805 116.263 72.9115 117.742 72.9115C119.221 72.9115 119.221 69.4805 117.742 69.4805Z" fill="#593517"/>
<path d="M120.053 62.9841C120.013 62.9841 120.013 63.083 120.053 63.083C120.092 63.083 120.092 62.9841 120.053 62.9841Z" fill="#593517"/>
<path d="M124.569 61.7581C122.548 61.7581 122.542 66.4646 124.569 66.4646C126.595 66.4646 126.595 61.7581 124.569 61.7581Z" fill="#593517"/>
<path d="M131.006 67.9873C129.739 67.9873 129.739 70.9338 131.006 70.9338C132.274 70.9338 132.274 67.9873 131.006 67.9873Z" fill="#593517"/>
<path d="M114.223 64.8926C112.282 64.8926 112.275 69.4112 114.223 69.4112C116.171 69.4112 116.171 64.8926 114.223 64.8926Z" fill="#593517"/>
<path d="M148.938 67.4534C146.72 67.4534 146.713 72.6246 148.938 72.6246C151.163 72.6246 151.163 67.4534 148.938 67.4534Z" fill="#593517"/>
<path d="M152.075 60.542C151.487 60.542 151.487 61.9065 152.075 61.9065C152.662 61.9065 152.662 60.542 152.075 60.542Z" fill="#593517"/>
<path d="M141.735 65.1199C140.269 65.1199 140.269 68.5311 141.735 68.5311C143.201 68.5311 143.201 65.1199 141.735 65.1199Z" fill="#593517"/>
<path d="M162.368 67.6907C162.256 67.6907 162.256 67.9478 162.368 67.9478C162.48 67.9478 162.48 67.6907 162.368 67.6907Z" fill="#593517"/>
<path d="M166.66 67.5425C165.293 67.5425 165.293 70.7164 166.66 70.7164C168.027 70.7164 168.027 67.5425 166.66 67.5425Z" fill="#593517"/>
<path d="M179.865 67.2261C177.732 67.2261 177.732 72.1897 179.865 72.1897C181.997 72.1897 181.997 67.2261 179.865 67.2261Z" fill="#593517"/>
<path d="M183.931 59.2268C181.997 59.2268 181.997 63.7257 183.931 63.7257C185.866 63.7257 185.866 59.2268 183.931 59.2268Z" fill="#593517"/>
<path d="M185.034 54.4907C183 54.4907 183 59.217 185.034 59.217C187.068 59.217 187.068 54.4907 185.034 54.4907Z" fill="#593517"/>
<path d="M173.533 56.666C171.532 56.666 171.526 61.3231 173.533 61.3231C175.54 61.3231 175.54 56.666 173.533 56.666Z" fill="#593517"/>
<path d="M197.084 58.7622C195.816 58.7622 195.816 61.7087 197.084 61.7087C198.351 61.7087 198.351 58.7622 197.084 58.7622Z" fill="#593517"/>
<path d="M200.88 67.3745C198.589 67.3745 198.589 72.7039 200.88 72.7039C203.171 72.7039 203.171 67.3745 200.88 67.3745Z" fill="#593517"/>
<path d="M205.225 55.4202C203.561 55.4202 203.561 59.2862 205.225 59.2862C206.889 59.2862 206.889 55.4202 205.225 55.4202Z" fill="#593517"/>
<path d="M211.827 42.0422C209.714 42.0422 209.714 46.9564 211.827 46.9564C213.94 46.9564 213.94 42.0422 211.827 42.0422Z" fill="#593517"/>
<path d="M218.212 51.7024C218.172 51.7024 218.172 51.8013 218.212 51.8013C218.251 51.8013 218.251 51.7024 218.212 51.7024Z" fill="#593517"/>
<path d="M213.808 61.4221C211.999 61.4221 211.992 65.6441 213.808 65.6441C215.624 65.6441 215.624 61.4221 213.808 61.4221Z" fill="#593517"/>
<path d="M214.798 72.1304C214.759 72.1304 214.759 72.2292 214.798 72.2292C214.838 72.2292 214.838 72.1304 214.798 72.1304Z" fill="#593517"/>
<path d="M228.776 66.5142C226.597 66.5142 226.591 71.5865 228.776 71.5865C230.962 71.5865 230.962 66.5142 228.776 66.5142Z" fill="#593517"/>
<path d="M237.029 56.8936C236.989 56.8936 236.989 56.9924 237.029 56.9924C237.068 56.9924 237.068 56.8936 237.029 56.8936Z" fill="#593517"/>
<path d="M242.641 56.7351C240.344 56.7351 240.337 62.0843 242.641 62.0843C244.946 62.0843 244.946 56.7351 242.641 56.7351Z" fill="#593517"/>
<path d="M248.088 51.5344C248.049 51.5344 248.049 51.6333 248.088 51.6333C248.128 51.6333 248.128 51.5344 248.088 51.5344Z" fill="#593517"/>
<path d="M251.171 60.4629C249.666 60.4629 249.666 63.9631 251.171 63.9631C252.676 63.9631 252.676 60.4629 251.171 60.4629Z" fill="#593517"/>
<path d="M258.157 66.5439C257.629 66.5439 257.629 67.77 258.157 67.77C258.685 67.77 258.685 66.5439 258.157 66.5439Z" fill="#593517"/>
<path d="M267.896 54.3127C266.628 54.3127 266.628 57.2593 267.896 57.2593C269.163 57.2593 269.163 54.3127 267.896 54.3127Z" fill="#593517"/>
<path d="M270.259 52.6912C270.22 52.6912 270.22 52.79 270.259 52.79C270.299 52.79 270.299 52.6912 270.259 52.6912Z" fill="#593517"/>
<path d="M263.657 65.8716C261.346 65.8716 261.346 71.2505 263.657 71.2505C265.968 71.2505 265.968 65.8716 263.657 65.8716Z" fill="#593517"/>
<path d="M247.527 71.9721C247.414 72.0314 247.309 72.0808 247.196 72.1402C247.157 72.1599 247.177 72.2588 247.216 72.2391C247.328 72.1797 247.434 72.1303 247.546 72.071C247.586 72.0512 247.566 71.9523 247.527 71.9721Z" fill="#593517"/>
<path d="M281.595 64.5762C279.661 64.5762 279.661 69.0751 281.595 69.0751C283.53 69.0751 283.53 64.5762 281.595 64.5762Z" fill="#593517"/>
<path d="M287.623 59.0786C287.293 58.4359 286.752 58.4656 286.355 58.9501C286.316 58.9501 286.283 58.9698 286.25 59.0292C285.9 59.306 285.768 60.008 285.92 60.5321C286.085 61.0957 286.468 61.3626 286.87 61.2341C287.049 61.1748 287.214 61.066 287.385 60.9474C287.854 60.631 287.9 59.6224 287.623 59.0786Z" fill="#593517"/>
<path d="M292.437 51.03C291.255 51.03 291.248 53.7887 292.437 53.7887C293.625 53.7887 293.625 51.03 292.437 51.03Z" fill="#593517"/>
<path d="M295.131 50.9114C293.639 50.9114 293.632 54.3918 295.131 54.3918C296.63 54.3918 296.63 50.9114 295.131 50.9114Z" fill="#593517"/>
<path d="M297.937 60.5718C296.669 60.5718 296.669 63.5183 297.937 63.5183C299.205 63.5183 299.205 60.5718 297.937 60.5718Z" fill="#593517"/>
<path d="M304.539 66.4153C302.347 66.4153 302.347 71.5173 304.539 71.5173C306.731 71.5173 306.731 66.4153 304.539 66.4153Z" fill="#593517"/>
<path d="M309.874 68.5906C309.835 68.5906 309.835 68.6895 309.874 68.6895C309.914 68.6895 309.914 68.5906 309.874 68.5906Z" fill="#593517"/>
<path d="M320.22 60.3836C320.009 60.3243 319.784 60.3836 319.619 60.5913C319.606 60.5913 319.586 60.611 319.573 60.6209C319.302 60.8385 319.131 61.2438 319.038 61.669C318.82 62.6776 319.348 63.7158 320.009 63.8542C320.649 63.9827 321.224 63.3301 321.309 62.371C321.389 61.4515 320.9 60.354 320.22 60.3935V60.3836Z" fill="#593517"/>
<path d="M325.449 47.53C323.171 47.53 323.165 52.8397 325.449 52.8397C327.734 52.8397 327.734 47.53 325.449 47.53Z" fill="#593517"/>
<path d="M330.897 48.321C329.292 48.321 329.292 52.0487 330.897 52.0487C332.501 52.0487 332.501 48.321 330.897 48.321Z" fill="#593517"/>
<path d="M333.808 64.6357C333.768 64.6357 333.768 64.7346 333.808 64.7346C333.848 64.7346 333.848 64.6357 333.808 64.6357Z" fill="#593517"/>
<path d="M341.955 67.3547C341.916 67.3547 341.916 67.4536 341.955 67.4536C341.995 67.4536 341.995 67.3547 341.955 67.3547Z" fill="#593517"/>
<path d="M347.29 66.3066C345.428 66.3066 345.428 70.6374 347.29 70.6374C349.152 70.6374 349.152 66.3066 347.29 66.3066Z" fill="#593517"/>
<path d="M352.19 58.0999C350.922 58.0999 350.922 61.0464 352.19 61.0464C353.457 61.0464 353.457 58.0999 352.19 58.0999Z" fill="#593517"/>
<path d="M355.16 55.0444C353.675 55.0444 353.675 58.4952 355.16 58.4952C356.646 58.4952 356.646 55.0444 355.16 55.0444Z" fill="#593517"/>
<path d="M361.869 63.3206C361.829 63.3206 361.829 63.4194 361.869 63.4194C361.908 63.4194 361.908 63.3206 361.869 63.3206Z" fill="#593517"/>
<path d="M369.851 67.3547C369.811 67.3547 369.811 67.4536 369.851 67.4536C369.891 67.4536 369.891 67.3547 369.851 67.3547Z" fill="#593517"/>
<path d="M376.836 52.9087C375.569 52.9087 375.569 55.8552 376.836 55.8552C378.104 55.8552 378.104 52.9087 376.836 52.9087Z" fill="#593517"/>
<path d="M390.483 63.9434C389.955 63.9434 389.566 64.2795 389.321 64.764C389.17 64.6948 389.011 64.6553 388.833 64.6553C386.753 64.6553 386.746 69.5002 388.833 69.5002C389.44 69.5002 389.863 69.0849 390.12 68.5016C390.233 68.5411 390.358 68.5609 390.483 68.5609C392.464 68.5609 392.471 63.9532 390.483 63.9532V63.9434Z" fill="#593517"/>
<path d="M398.294 51.762C396.043 51.762 396.043 57.0024 398.294 57.0024C400.545 57.0024 400.545 51.762 398.294 51.762Z" fill="#593517"/>
<path d="M407.425 63.6565C405.55 63.6565 405.55 68.0169 407.425 68.0169C409.3 68.0169 409.3 63.6565 407.425 63.6565Z" fill="#593517"/>
<path d="M428.283 67.7898C427.061 67.7898 427.055 70.6374 428.283 70.6374C429.511 70.6374 429.511 67.7898 428.283 67.7898Z" fill="#593517"/>
<path d="M428.058 57.4175C426.348 57.4175 426.342 61.4022 428.058 61.4022C429.775 61.4022 429.775 57.4175 428.058 57.4175Z" fill="#593517"/>
<path d="M430.864 51.8015C428.851 51.8015 428.851 56.4784 430.864 56.4784C432.878 56.4784 432.878 51.8015 430.864 51.8015Z" fill="#593517"/>
<path d="M438.952 57.1704C436.602 57.1704 436.602 62.6383 438.952 62.6383C441.303 62.6383 441.309 57.1704 438.952 57.1704Z" fill="#593517"/>
<path d="M441.871 66.5933C440.603 66.5933 440.603 69.5398 441.871 69.5398C443.138 69.5398 443.138 66.5933 441.871 66.5933Z" fill="#593517"/>
<path d="M461.678 65.209C459.645 65.209 459.645 69.9353 461.678 69.9353C463.712 69.9353 463.712 65.209 461.678 65.209Z" fill="#593517"/>
<path d="M462.721 52.2659C461.328 52.2659 461.328 55.509 462.721 55.509C464.114 55.509 464.114 52.2659 462.721 52.2659Z" fill="#593517"/>
<path d="M471.859 51.4255C469.806 51.4255 469.806 56.2013 471.859 56.2013C473.912 56.2013 473.912 51.4255 471.859 51.4255Z" fill="#593517"/>
<path d="M473.167 60.6608C472.645 59.6918 471.582 60.196 471.298 61.2145C471.008 62.2527 471.516 63.716 472.355 63.6073C472.836 63.5381 473.266 63.3008 473.464 62.5889C473.668 61.8671 473.477 61.2441 473.167 60.6608Z" fill="#593517"/>
<path d="M451.226 55.717C449.048 55.717 449.041 60.7894 451.226 60.7894C453.412 60.7894 453.412 55.717 451.226 55.717Z" fill="#593517"/>
<path d="M487.428 64.7244C485.626 64.7244 485.626 68.9167 487.428 68.9167C489.231 68.9167 489.231 64.7244 487.428 64.7244Z" fill="#593517"/>
<path d="M491.171 52.3352C489.904 52.3352 489.904 55.2817 491.171 55.2817C492.439 55.2817 492.439 52.3352 491.171 52.3352Z" fill="#593517"/>
<path d="M496.619 54.0063C496.579 54.0063 496.579 54.1052 496.619 54.1052C496.658 54.1052 496.658 54.0063 496.619 54.0063Z" fill="#593517"/>
<path d="M502.944 64.6357C502.904 64.6357 502.904 64.7346 502.944 64.7346C502.983 64.7346 502.983 64.6357 502.944 64.6357Z" fill="#593517"/>
<path d="M482.859 55.7068C480.74 55.7068 480.733 60.6407 482.859 60.6407C484.985 60.6407 484.985 55.7068 482.859 55.7068Z" fill="#593517"/>
<path d="M506.958 61.2935C505.175 61.2935 505.175 65.4463 506.958 65.4463C508.741 65.4463 508.741 61.2935 506.958 61.2935Z" fill="#593517"/>
<path d="M509.711 55.8157C509.672 55.8157 509.672 55.9145 509.711 55.9145C509.751 55.9145 509.751 55.8157 509.711 55.8157Z" fill="#593517"/>
<path d="M500.025 58.9502C498.071 58.9502 498.071 63.4886 500.025 63.4886C501.98 63.4886 501.98 58.9502 500.025 58.9502Z" fill="#593517"/>
<path d="M513.56 65.5847C511.566 65.5847 511.566 70.222 513.56 70.222C515.554 70.222 515.554 65.5847 513.56 65.5847Z" fill="#593517"/>
<path d="M523.834 65.4563C523.834 65.4563 523.807 65.4167 523.794 65.3871C523.669 65.1794 523.405 65.0608 523.233 65.1597C523.213 65.1695 523.2 65.1794 523.18 65.1893C522.593 65.5354 522.494 66.8504 523.18 67.1372C523.86 67.414 524.263 66.188 523.834 65.4563Z" fill="#593517"/>
<path d="M527.208 55.4895C526.528 55.4895 526.528 57.0616 527.208 57.0616C527.888 57.0616 527.888 55.4895 527.208 55.4895Z" fill="#593517"/>
<path d="M518.572 55.7959C516.67 55.7959 516.664 60.2256 518.572 60.2256C520.48 60.2256 520.48 55.7959 518.572 55.7959Z" fill="#593517"/>
<path d="M544.486 65.6045C542.723 65.6045 542.723 69.7079 544.486 69.7079C546.249 69.7079 546.249 65.6045 544.486 65.6045Z" fill="#593517"/>
<path d="M543.688 57.1604C543.622 56.3991 543.061 55.7069 542.533 56.0036C542.064 56.2705 541.443 56.7056 541.523 57.6251C541.602 58.5348 542.282 58.7029 542.777 58.7425C543.338 58.782 543.761 57.9514 543.688 57.1703V57.1604Z" fill="#593517"/>
<path d="M535.844 63.7258C535.805 63.7258 535.805 63.8247 535.844 63.8247C535.884 63.8247 535.884 63.7258 535.844 63.7258Z" fill="#593517"/>
<path d="M552.515 61.7185C550.462 61.7185 550.462 66.4942 552.515 66.4942C554.568 66.4942 554.568 61.7185 552.515 61.7185Z" fill="#593517"/>
<path d="M560.385 50.8718C560.346 50.8718 560.346 50.9707 560.385 50.9707C560.425 50.9707 560.425 50.8718 560.385 50.8718Z" fill="#593517"/>
<path d="M568.255 57.467C566.869 57.467 566.869 60.6904 568.255 60.6904C569.642 60.6904 569.642 57.467 568.255 57.467Z" fill="#593517"/>
<path d="M568.031 65.4265C565.839 65.4265 565.839 70.5285 568.031 70.5285C570.223 70.5285 570.223 65.4265 568.031 65.4265Z" fill="#593517"/>
<path d="M559.89 63.5676C559.85 63.5676 559.85 63.6665 559.89 63.6665C559.93 63.6665 559.93 63.5676 559.89 63.5676Z" fill="#593517"/>
<path d="M559.23 53.8381C559.19 53.8381 559.19 53.937 559.23 53.937C559.27 53.937 559.27 53.8381 559.23 53.8381Z" fill="#593517"/>
<path d="M585.528 59.2466C583.547 59.2466 583.54 63.8542 585.528 63.8542C587.515 63.8542 587.515 59.2466 585.528 59.2466Z" fill="#593517"/>
<path d="M590.922 53.5911C590.882 53.5911 590.882 53.6899 590.922 53.6899C590.961 53.6899 590.961 53.5911 590.922 53.5911Z" fill="#593517"/>
<path d="M596.151 55.1235C594.17 55.1235 594.164 59.7312 596.151 59.7312C598.138 59.7312 598.138 55.1235 596.151 55.1235Z" fill="#593517"/>
<path d="M593.675 67.335C592.407 67.335 592.407 70.2815 593.675 70.2815C594.943 70.2815 594.943 67.335 593.675 67.335Z" fill="#593517"/>
<path d="M583.217 69.1641C583.177 69.1641 583.177 69.2629 583.217 69.2629C583.256 69.2629 583.256 69.1641 583.217 69.1641Z" fill="#593517"/>
<path d="M608.174 64.6158C608.088 64.5367 607.996 64.4774 607.903 64.418C607.731 64.1313 607.54 63.9039 607.269 63.7951C606.616 63.5281 605.837 64.1313 605.678 65.1497C605.526 66.1385 605.876 67.2854 606.583 67.5326C607.269 67.7699 607.896 67.2459 608.147 66.2769C608.233 66.1484 608.312 66.0198 608.392 65.8715C608.596 65.4661 608.425 64.8531 608.174 64.6158Z" fill="#593517"/>
<path d="M613.535 63.8545C611.766 63.8545 611.759 67.9776 613.535 67.9776C615.311 67.9776 615.311 63.8545 613.535 63.8545Z" fill="#593517"/>
<path d="M612.274 51.7913C611.746 51.7913 611.238 52.4933 611.257 53.314C611.284 54.1346 611.7 54.8366 612.274 54.8366C612.802 54.8366 613.311 54.1346 613.291 53.314C613.265 52.4933 612.849 51.7913 612.274 51.7913Z" fill="#593517"/>
<path d="M633.95 67.0974C632.484 67.0974 632.484 70.5086 633.95 70.5086C635.416 70.5086 635.416 67.0974 633.95 67.0974Z" fill="#593517"/>
<path d="M631.639 54.0557C630.919 54.0557 630.226 55.0049 630.259 56.1222C630.292 57.2395 630.866 58.1887 631.639 58.1887C632.359 58.1887 633.052 57.2395 633.019 56.1222C632.986 55.0049 632.411 54.0557 631.639 54.0557Z" fill="#593517"/>
<path d="M624.812 58.6833C623.544 58.6833 623.544 61.6299 624.812 61.6299C626.08 61.6299 626.08 58.6833 624.812 58.6833Z" fill="#593517"/>
<path d="M643.193 57.5066C641.767 57.5066 641.767 60.8189 643.193 60.8189C644.619 60.8189 644.619 57.5066 643.193 57.5066Z" fill="#593517"/>
<path d="M644.567 61.2837C643.134 61.2837 643.127 64.6257 644.567 64.6257C646.006 64.6257 646.006 61.2837 644.567 61.2837Z" fill="#593517"/>
<path d="M666.962 63.7456C666.289 63.7456 665.648 64.6256 665.675 65.6737C665.708 66.7119 666.236 67.6018 666.962 67.6018C667.636 67.6018 668.276 66.7218 668.25 65.6737C668.217 64.6355 667.688 63.7456 666.962 63.7456Z" fill="#593517"/>
<path d="M660.525 54.3918C659.257 54.3918 659.257 57.3384 660.525 57.3384C661.793 57.3384 661.793 54.3918 660.525 54.3918Z" fill="#593517"/>
<path d="M669.326 52.4143C668.058 52.4143 668.058 55.3608 669.326 55.3608C670.593 55.3608 670.593 52.4143 669.326 52.4143Z" fill="#593517"/>
<path d="M684.459 70.1726C682.947 70.1726 682.94 73.6926 684.459 73.6926C685.977 73.6926 685.977 70.1726 684.459 70.1726Z" fill="#593517"/>
<path d="M682.313 60.2454C681.045 60.2454 681.045 63.1919 682.313 63.1919C683.581 63.1919 683.581 60.2454 682.313 60.2454Z" fill="#593517"/>
<path d="M684.564 55.5291C682.57 55.5291 682.57 60.1664 684.564 60.1664C686.558 60.1664 686.558 55.5291 684.564 55.5291Z" fill="#593517"/>
<path d="M695.188 51.4553C693.029 51.4553 693.023 56.4881 695.188 56.4881C697.354 56.4881 697.354 51.4553 695.188 51.4553Z" fill="#593517"/>
<path d="M696.614 63.1326C695.347 63.1326 695.347 66.0791 696.614 66.0791C697.882 66.0791 697.882 63.1326 696.614 63.1326Z" fill="#593517"/>
<path d="M692.93 68.1753C692.89 68.1753 692.89 68.2742 692.93 68.2742C692.97 68.2742 692.97 68.1753 692.93 68.1753Z" fill="#593517"/>
<path d="M705.917 66.3066C704.266 66.3066 704.259 70.1529 705.917 70.1529C707.574 70.1529 707.574 66.3066 705.917 66.3066Z" fill="#593517"/>
<path d="M710.644 66.2373C708.861 66.2373 708.861 70.3901 710.644 70.3901C712.427 70.3901 712.427 66.2373 710.644 66.2373Z" fill="#593517"/>
<path d="M708.393 55.6082C706.261 55.6082 706.261 60.5717 708.393 60.5717C710.526 60.5717 710.526 55.6082 708.393 55.6082Z" fill="#593517"/>
<path d="M724.839 66.3462C722.588 66.3462 722.588 71.5866 724.839 71.5866C727.091 71.5866 727.091 66.3462 724.839 66.3462Z" fill="#593517"/>
<path d="M718.237 58.772C715.985 58.772 715.985 64.0124 718.237 64.0124C720.488 64.0124 720.488 58.772 718.237 58.772Z" fill="#593517"/>
<path d="M734.195 55.4104C734.156 55.4104 734.156 55.5093 734.195 55.5093C734.235 55.5093 734.235 55.4104 734.195 55.4104Z" fill="#593517"/>
<path d="M737.279 57.9021C734.988 57.9021 734.988 63.2315 737.279 63.2315C739.57 63.2315 739.57 57.9021 737.279 57.9021Z" fill="#593517"/>
<path d="M733.093 65.2683C731.825 65.2683 731.825 68.2148 733.093 68.2148C734.361 68.2148 734.361 65.2683 733.093 65.2683Z" fill="#593517"/>
<path d="M730.346 58.2087C730.307 58.2087 730.307 58.3076 730.346 58.3076C730.386 58.3076 730.386 58.2087 730.346 58.2087Z" fill="#593517"/>
<path d="M749.335 68.6894C750.358 67.2656 749.982 63.9829 748.173 63.9829C745.941 63.9829 745.875 68.9959 747.974 69.3025C747.724 70.1726 748.007 71.4184 748.833 71.4184C749.896 71.4184 750.061 69.342 749.335 68.6795V68.6894Z" fill="#593517"/>
<path d="M763.741 60.7201C763.391 60.7201 763.134 60.9079 762.942 61.2046C763.365 59.9587 762.975 58.0603 761.761 58.0603C759.958 58.0603 759.958 62.2527 761.761 62.2527C762.196 62.2527 762.52 62.0055 762.744 61.6396C762.414 62.6679 762.744 64.2005 763.741 64.2005C765.233 64.2005 765.24 60.7201 763.741 60.7201Z" fill="#593517"/>
<path d="M766.383 71.6162C766.904 71.6162 767.327 70.9832 767.327 70.2023C767.327 69.4214 766.904 68.7883 766.383 68.7883C765.861 68.7883 765.438 69.4214 765.438 70.2023C765.438 70.9832 765.861 71.6162 766.383 71.6162Z" fill="#593517"/>
<path d="M777.494 61.5703C775.177 61.5703 775.17 66.969 777.494 66.969C779.819 66.969 779.819 61.5703 777.494 61.5703Z" fill="#593517"/>
<path d="M780.525 54.3325C778.076 54.3325 778.069 60.0377 780.525 60.0377C782.981 60.0377 782.981 54.3325 780.525 54.3325Z" fill="#593517"/>
<path d="M782.446 64.9617C780.347 64.9617 780.34 69.856 782.446 69.856C784.552 69.856 784.552 64.9617 782.446 64.9617Z" fill="#593517"/>
<path d="M784.044 57.5857C783.377 57.5857 782.737 58.4657 782.77 59.494C782.803 60.5322 783.331 61.4023 784.044 61.4023C784.711 61.4023 785.351 60.5223 785.318 59.494C785.285 58.4558 784.757 57.5857 784.044 57.5857Z" fill="#593517"/>
<path d="M796.919 63.7654C795.064 63.7654 795.064 68.0764 796.919 68.0764C798.774 68.0764 798.774 63.7654 796.919 63.7654Z" fill="#593517"/>
<path d="M799.118 60.3542C799.078 60.3542 799.078 60.4531 799.118 60.4531C799.157 60.4531 799.157 60.3542 799.118 60.3542Z" fill="#593517"/>
<path d="M805.667 62.5986C804.083 62.5986 804.083 66.2867 805.667 66.2867C807.252 66.2867 807.252 62.5986 805.667 62.5986Z" fill="#593517"/>
<path d="M809.186 66.6921C807.304 66.6921 807.304 71.0724 809.186 71.0724C811.068 71.0724 811.074 66.6921 809.186 66.6921Z" fill="#593517"/>
<path d="M817.334 62.7173C816.066 62.7173 816.066 65.6638 817.334 65.6638C818.601 65.6638 818.601 62.7173 817.334 62.7173Z" fill="#593517"/>
<path d="M821.183 58.1689C819.691 58.1689 819.684 61.6494 821.183 61.6494C822.682 61.6494 822.682 58.1689 821.183 58.1689Z" fill="#593517"/>
<path d="M824.266 65.6045C822.999 65.6045 822.999 68.551 824.266 68.551C825.534 68.551 825.534 65.6045 824.266 65.6045Z" fill="#593517"/>
<path d="M849.191 63.3799C847.58 63.3799 847.573 67.1372 849.191 67.1372C850.808 67.1372 850.808 63.3799 849.191 63.3799Z" fill="#593517"/>
<path d="M851.719 54.4216C849.56 54.4216 849.554 59.4544 851.719 59.4544C853.885 59.4544 853.885 54.4216 851.719 54.4216Z" fill="#593517"/>
<path d="M840.165 61.679C839.776 61.679 839.776 62.5787 840.165 62.5787C840.555 62.5787 840.555 61.679 840.165 61.679Z" fill="#593517"/>
<path d="M846.325 68.8379C846.285 68.8379 846.285 68.9368 846.325 68.9368C846.364 68.9368 846.364 68.8379 846.325 68.8379Z" fill="#593517"/>
<path d="M860.414 68.6499C859.787 68.6499 859.186 69.4805 859.213 70.4495C859.239 71.4184 859.741 72.249 860.414 72.249C861.042 72.249 861.642 71.4184 861.616 70.4495C861.59 69.4805 861.088 68.6499 860.414 68.6499Z" fill="#593517"/>
<path d="M834.005 61.1553C831.892 61.1553 831.892 66.0694 834.005 66.0694C836.117 66.0694 836.117 61.1553 834.005 61.1553Z" fill="#593517"/>
<path d="M870.259 63.3501C868.688 63.3501 868.681 67.0085 870.259 67.0085C871.837 67.0085 871.837 63.3501 870.259 63.3501Z" fill="#593517"/>
<path d="M898.597 63.8838C896.636 63.8838 896.63 68.4519 898.597 68.4519C900.565 68.4519 900.565 63.8838 898.597 63.8838Z" fill="#593517"/>
<path d="M891.057 56.2803C889.215 56.2803 889.215 60.5715 891.057 60.5715C892.899 60.5715 892.899 56.2803 891.057 56.2803Z" fill="#593517"/>
<path d="M887.591 64.1611C885.801 64.1611 885.795 68.3337 887.591 68.3337C889.386 68.3337 889.386 64.1611 887.591 64.1611Z" fill="#593517"/>
<path d="M907.015 64.9224C904.955 64.9224 904.949 69.7179 907.015 69.7179C909.082 69.7179 909.082 64.9224 907.015 64.9224Z" fill="#593517"/>
<path d="M914.72 59.4644C912.707 59.4644 912.707 64.1412 914.72 64.1412C916.734 64.1412 916.734 59.4644 914.72 59.4644Z" fill="#593517"/>
<path d="M918.351 63.9927C916.905 63.9927 916.905 67.3545 918.351 67.3545C919.797 67.3545 919.797 63.9927 918.351 63.9927Z" fill="#593517"/>
<path d="M920.662 68.8379C918.919 68.8379 918.919 72.8918 920.662 72.8918C922.405 72.8918 922.405 68.8379 920.662 68.8379Z" fill="#593517"/>
<path d="M928.091 68.304C927.232 68.304 927.232 70.3012 928.091 70.3012C928.949 70.3012 928.949 68.304 928.091 68.304Z" fill="#593517"/>
<path d="M933.194 64.5367C932.686 64.5664 932.29 64.9421 932.092 65.6441C931.814 66.6329 932.177 67.7996 932.871 68.0864C933.518 68.3533 934.152 67.7601 934.356 66.8207C934.594 65.7331 933.953 64.4774 933.194 64.5367Z" fill="#593517"/>
<path d="M933.92 54.4216C932.111 54.4216 932.105 58.6437 933.92 58.6437C935.736 58.6437 935.736 54.4216 933.92 54.4216Z" fill="#593517"/>
<path d="M937.994 61.4912C936.099 61.4912 936.099 65.8912 937.994 65.8912C939.889 65.8912 939.889 61.4912 937.994 61.4912Z" fill="#593517"/>
<path d="M943.276 63.9729C943.236 63.9729 943.236 64.0718 943.276 64.0718C943.315 64.0718 943.315 63.9729 943.276 63.9729Z" fill="#593517"/>
<path d="M944.484 51.7422C942.213 51.7422 942.213 57.0222 944.484 57.0222C946.755 57.0222 946.755 51.7422 944.484 51.7422Z" fill="#593517"/>
<path d="M937.499 46.897C936.231 46.897 936.231 49.8435 937.499 49.8435C938.766 49.8435 938.766 46.897 937.499 46.897Z" fill="#593517"/>
<path d="M947.515 39.5406C947.7 38.1564 947.191 36.5249 945.97 36.5249C944.445 36.5249 944.022 39.0858 944.709 40.5096C944.53 41.884 945.039 43.4858 946.247 43.4858C947.759 43.4858 948.182 40.9645 947.515 39.5406Z" fill="#593517"/>
<path d="M939.916 32.0557C938.146 32.0557 938.139 36.1788 939.916 36.1788C941.692 36.1788 941.692 32.0557 939.916 32.0557Z" fill="#593517"/>
<path d="M938.924 20.5269C937.657 20.5269 937.657 23.4734 938.924 23.4734C940.192 23.4734 940.192 20.5269 938.924 20.5269Z" fill="#593517"/>
<path d="M934.911 17.5208C932.62 17.5208 932.62 22.8502 934.911 22.8502C937.202 22.8502 937.202 17.5208 934.911 17.5208Z" fill="#593517"/>
<path d="M929.299 30.1968C929.259 30.1968 929.259 30.2957 929.299 30.2957C929.338 30.2957 929.338 30.1968 929.299 30.1968Z" fill="#593517"/>
<path d="M926.658 29.2082C927.186 29.2082 927.615 28.5663 927.615 27.7745C927.615 26.9827 927.186 26.3408 926.658 26.3408C926.129 26.3408 925.7 26.9827 925.7 27.7745C925.7 28.5663 926.129 29.2082 926.658 29.2082Z" fill="#593517"/>
<path d="M922.254 17.7483C920.583 17.7483 920.577 21.644 922.254 21.644C923.931 21.644 923.931 17.7483 922.254 17.7483Z" fill="#593517"/>
<path d="M916.312 18.7371C916.272 18.7371 916.272 18.8359 916.312 18.8359C916.352 18.8359 916.352 18.7371 916.312 18.7371Z" fill="#593517"/>
<path d="M906.302 23.5029C904.05 23.5029 904.05 28.7434 906.302 28.7434C908.553 28.7434 908.553 23.5029 906.302 23.5029Z" fill="#593517"/>
<path d="M901.455 24.6697C901.416 24.6697 901.416 24.7686 901.455 24.7686C901.495 24.7686 901.495 24.6697 901.455 24.6697Z" fill="#593517"/>
<path d="M896.174 15.9092C894.12 15.9092 894.12 20.6849 896.174 20.6849C898.227 20.6849 898.227 15.9092 896.174 15.9092Z" fill="#593517"/>
<path d="M887.043 20.3291C885.458 20.3291 885.458 24.0172 887.043 24.0172C888.628 24.0172 888.628 20.3291 887.043 20.3291Z" fill="#593517"/>
<path d="M883.246 16.0774C881.978 16.0774 881.978 19.0239 883.246 19.0239C884.514 19.0239 884.514 16.0774 883.246 16.0774Z" fill="#593517"/>
<path d="M880.658 18.5789C880.619 18.5789 880.619 18.6777 880.658 18.6777C880.698 18.6777 880.698 18.5789 880.658 18.5789Z" fill="#593517"/>
<path d="M876.697 26.3999C876.657 26.3999 876.657 26.4988 876.697 26.4988C876.736 26.4988 876.736 26.3999 876.697 26.3999Z" fill="#593517"/>
<path d="M871.639 20.863C870.517 20.863 870.51 23.4833 871.639 23.4833C872.768 23.4833 872.768 20.863 871.639 20.863Z" fill="#593517"/>
<path d="M865.862 17.1648C864.04 17.1648 864.04 21.4066 865.862 21.4066C867.684 21.4066 867.684 17.1648 865.862 17.1648Z" fill="#593517"/>
<path d="M858.982 20.9717C856.889 20.9717 856.889 25.8364 858.982 25.8364C861.075 25.8364 861.075 20.9717 858.982 20.9717Z" fill="#593517"/>
<path d="M862.283 27.2307C862.244 27.2307 862.244 27.3296 862.283 27.3296C862.323 27.3296 862.323 27.2307 862.283 27.2307Z" fill="#593517"/>
<path d="M875.158 22.0298C872.986 22.0298 872.986 27.0824 875.158 27.0824C877.33 27.0824 877.33 22.0298 875.158 22.0298Z" fill="#593517"/>
<path d="M873.29 15.6028C871.329 15.6028 871.322 20.1709 873.29 20.1709C875.257 20.1709 875.257 15.6028 873.29 15.6028Z" fill="#593517"/>
<path d="M852.492 15.8005C850.28 15.8005 850.28 20.9421 852.492 20.9421C854.704 20.9421 854.704 15.8005 852.492 15.8005Z" fill="#593517"/>
<path d="M843.413 16.0081C841.096 16.0081 841.089 21.4067 843.413 21.4067C845.738 21.4067 845.738 16.0081 843.413 16.0081Z" fill="#593517"/>
<path d="M834.665 21.8613C832.565 21.8613 832.559 26.7557 834.665 26.7557C836.771 26.7557 836.771 21.8613 834.665 21.8613Z" fill="#593517"/>
<path d="M830.314 23.2261C829.238 23.2261 829.238 25.7276 830.314 25.7276C831.39 25.7276 831.39 23.2261 830.314 23.2261Z" fill="#593517"/>
<path d="M827.621 15.6226C826.888 15.6226 826.188 16.5916 826.221 17.7187C826.254 18.8558 826.835 19.8149 827.621 19.8149C828.353 19.8149 829.053 18.8459 829.02 17.7187C828.987 16.5817 828.406 15.6226 827.621 15.6226Z" fill="#593517"/>
<path d="M823.877 18.1143C822.372 18.1143 822.372 21.6145 823.877 21.6145C825.382 21.6145 825.382 18.1143 823.877 18.1143Z" fill="#593517"/>
<path d="M821.625 23.335C820.648 23.335 820.648 25.6091 821.625 25.6091C822.603 25.6091 822.603 23.335 821.625 23.335Z" fill="#593517"/>
<path d="M817.222 18.6875C815.511 18.6875 815.505 22.6722 817.222 22.6722C818.938 22.6722 818.938 18.6875 817.222 18.6875Z" fill="#593517"/>
<path d="M814.033 15.1084C812.072 15.1084 812.065 19.6765 814.033 19.6765C816 19.6765 816 15.1084 814.033 15.1084Z" fill="#593517"/>
<path d="M809.741 24.6697C808.07 24.6697 808.064 28.5654 809.741 28.5654C811.418 28.5654 811.418 24.6697 809.741 24.6697Z" fill="#593517"/>
<path d="M803.244 23.0186C801.349 23.0186 801.349 27.4186 803.244 27.4186C805.139 27.4186 805.139 23.0186 803.244 23.0186Z" fill="#593517"/>
<path d="M790.204 25.5002C790.164 25.5002 790.164 25.5991 790.204 25.5991C790.244 25.5991 790.244 25.5002 790.204 25.5002Z" fill="#593517"/>
<path d="M778.927 22.3164C777.006 22.3164 776.999 26.7856 778.927 26.7856C780.855 26.7856 780.855 22.3164 778.927 22.3164Z" fill="#593517"/>
<path d="M787.623 18.302C786.355 18.302 786.355 21.2485 787.623 21.2485C788.89 21.2485 788.89 18.302 787.623 18.302Z" fill="#593517"/>
<path d="M792.793 23.4138C791.525 23.4138 791.525 26.3603 792.793 26.3603C794.06 26.3603 794.06 23.4138 792.793 23.4138Z" fill="#593517"/>
<path d="M768.911 20.1707C767.908 20.1707 767.901 22.514 768.911 22.514C769.922 22.514 769.922 20.1707 768.911 20.1707Z" fill="#593517"/>
<path d="M762.309 16.8188C761.041 16.8188 761.041 19.7654 762.309 19.7654C763.576 19.7654 763.576 16.8188 762.309 16.8188Z" fill="#593517"/>
<path d="M756.426 19.3303C754.128 19.3303 754.122 24.6795 756.426 24.6795C758.73 24.6795 758.73 19.3303 756.426 19.3303Z" fill="#593517"/>
<path d="M749.381 19.7061C747.691 19.7061 747.684 23.6413 749.381 23.6413C751.078 23.6413 751.078 19.7061 749.381 19.7061Z" fill="#593517"/>
<path d="M743.551 20.9915C741.689 20.9915 741.689 25.3222 743.551 25.3222C745.413 25.3222 745.413 20.9915 743.551 20.9915Z" fill="#593517"/>
<path d="M738.705 15.0391C737.18 15.0391 737.18 18.5887 738.705 18.5887C740.23 18.5887 740.23 15.0391 738.705 15.0391Z" fill="#593517"/>
<path d="M734.472 20.665C732.194 20.665 732.188 25.9747 734.472 25.9747C736.757 25.9747 736.757 20.665 734.472 20.665Z" fill="#593517"/>
<path d="M730.729 22.3857C728.438 22.3857 728.438 27.7152 730.729 27.7152C733.02 27.7152 733.02 22.3857 730.729 22.3857Z" fill="#593517"/>
<path d="M723.083 20.8037C720.99 20.8037 720.99 25.6684 723.083 25.6684C725.176 25.6684 725.176 20.8037 723.083 20.8037Z" fill="#593517"/>
<path d="M717.306 18.4009C715.345 18.4009 715.339 22.969 717.306 22.969C719.274 22.969 719.274 18.4009 717.306 18.4009Z" fill="#593517"/>
<path d="M710.644 17.3132C709.376 17.3132 709.376 20.2598 710.644 20.2598C711.912 20.2598 711.912 17.3132 710.644 17.3132Z" fill="#593517"/>
<path d="M721.373 26.8447C719.663 26.8447 719.657 30.8294 721.373 30.8294C723.09 30.8294 723.09 26.8447 721.373 26.8447Z" fill="#593517"/>
<path d="M709.383 27.1218C708.115 27.1218 708.115 30.0683 709.383 30.0683C710.651 30.0683 710.651 27.1218 709.383 27.1218Z" fill="#593517"/>
<path d="M699.915 24.8474C698.463 24.8474 698.456 28.229 699.915 28.229C701.374 28.229 701.374 24.8474 699.915 24.8474Z" fill="#593517"/>
<path d="M697.934 17.2539C697.895 17.2539 697.895 17.3528 697.934 17.3528C697.974 17.3528 697.974 17.2539 697.934 17.2539Z" fill="#593517"/>
<path d="M691.444 17.0859C689.345 17.0859 689.338 21.9803 691.444 21.9803C693.551 21.9803 693.551 17.0859 691.444 17.0859Z" fill="#593517"/>
<path d="M685.779 26.3408C683.627 26.3408 683.627 31.344 685.779 31.344C687.932 31.344 687.932 26.3408 685.779 26.3408Z" fill="#593517"/>
<path d="M680.715 29.3662C680.676 29.3662 680.676 29.4651 680.715 29.4651C680.755 29.4651 680.755 29.3662 680.715 29.3662Z" fill="#593517"/>
<path d="M674.113 20.5564C674.074 20.5564 674.074 20.6553 674.113 20.6553C674.153 20.6553 674.153 20.5564 674.113 20.5564Z" fill="#593517"/>
<path d="M681.158 24.5608C679.533 24.5608 679.533 28.3379 681.158 28.3379C682.782 28.3379 682.782 24.5608 681.158 24.5608Z" fill="#593517"/>
<path d="M676.919 17.4023C675.651 17.4023 675.651 20.3489 676.919 20.3489C678.187 20.3489 678.187 17.4023 676.919 17.4023Z" fill="#593517"/>
<path d="M671.42 17.3132C670.152 17.3132 670.152 20.2598 671.42 20.2598C672.687 20.2598 672.687 17.3132 671.42 17.3132Z" fill="#593517"/>
<path d="M664.374 25.9946C664.334 25.9946 664.334 26.0935 664.374 26.0935C664.414 26.0935 664.414 25.9946 664.374 25.9946Z" fill="#593517"/>
<path d="M658.049 23.335C656.577 23.335 656.57 26.766 658.049 26.766C659.528 26.766 659.528 23.335 658.049 23.335Z" fill="#593517"/>
<path d="M653.592 19.3997C653.553 19.3997 653.553 19.4985 653.592 19.4985C653.632 19.4985 653.632 19.3997 653.592 19.3997Z" fill="#593517"/>
<path d="M647.261 18.1042C644.903 18.1042 644.897 23.5919 647.261 23.5919C649.624 23.5919 649.624 18.1042 647.261 18.1042Z" fill="#593517"/>
<path d="M639.893 25.4905C639.213 25.4905 638.559 26.3903 638.592 27.4383C638.625 28.4963 639.16 29.3862 639.893 29.3862C640.573 29.3862 641.226 28.4864 641.193 27.4383C641.16 26.3804 640.626 25.4905 639.893 25.4905Z" fill="#593517"/>
<path d="M657.494 15.4939C655.375 15.4939 655.368 20.4278 657.494 20.4278C659.62 20.4278 659.62 15.4939 657.494 15.4939Z" fill="#593517"/>
<path d="M631.084 25.5793C629.414 25.5793 629.407 29.4751 631.084 29.4751C632.761 29.4751 632.761 25.5793 631.084 25.5793Z" fill="#593517"/>
<path d="M630.649 18.5789C629.546 18.5789 629.54 21.1496 630.649 21.1496C631.758 21.1496 631.758 18.5789 630.649 18.5789Z" fill="#593517"/>
<path d="M630.154 16.6807C630.114 16.6807 630.114 16.7795 630.154 16.7795C630.193 16.7795 630.193 16.6807 630.154 16.6807Z" fill="#593517"/>
<path d="M619.094 21.8716C619.055 21.8716 619.055 21.9705 619.094 21.9705C619.134 21.9705 619.134 21.8716 619.094 21.8716Z" fill="#593517"/>
<path d="M614.638 25.2927C613.918 25.2927 613.225 26.2419 613.258 27.3592C613.291 28.4765 613.865 29.4258 614.638 29.4258C615.358 29.4258 616.051 28.4765 616.018 27.3592C615.985 26.2419 615.41 25.2927 614.638 25.2927Z" fill="#593517"/>
<path d="M613.978 17.0166C612.591 17.0166 612.591 20.24 613.978 20.24C615.364 20.24 615.364 17.0166 613.978 17.0166Z" fill="#593517"/>
<path d="M621.128 18.302C619.576 18.302 619.57 21.9209 621.128 21.9209C622.686 21.9209 622.686 18.302 621.128 18.302Z" fill="#593517"/>
<path d="M601.268 19.8049C599.373 19.8049 599.373 24.2049 601.268 24.2049C603.163 24.2049 603.163 19.8049 601.268 19.8049Z" fill="#593517"/>
<path d="M591.417 27.3494C590.202 27.3494 590.202 30.1772 591.417 30.1772C592.632 30.1772 592.632 27.3494 591.417 27.3494Z" fill="#593517"/>
<path d="M587.238 21.3574C585.97 21.3574 585.97 24.3039 587.238 24.3039C588.506 24.3039 588.506 21.3574 587.238 21.3574Z" fill="#593517"/>
<path d="M587.732 18.3318C587.693 18.3318 587.693 18.4307 587.732 18.4307C587.772 18.4307 587.772 18.3318 587.732 18.3318Z" fill="#593517"/>
<path d="M593.728 17.9065C592.335 17.9065 592.335 21.1496 593.728 21.1496C595.121 21.1496 595.121 17.9065 593.728 17.9065Z" fill="#593517"/>
<path d="M579.202 23.2756C578.436 23.2756 577.703 24.2842 577.743 25.4608C577.776 26.6473 578.383 27.646 579.202 27.646C579.968 27.646 580.701 26.6374 580.661 25.4608C580.628 24.2743 580.021 23.2756 579.202 23.2756Z" fill="#593517"/>
<path d="M577.109 15.6919C575.227 15.6919 575.227 20.0721 577.109 20.0721C578.991 20.0721 578.997 15.6919 577.109 15.6919Z" fill="#593517"/>
<path d="M568.525 18.7271C566.842 18.7271 566.842 22.6426 568.525 22.6426C570.209 22.6426 570.209 18.7271 568.525 18.7271Z" fill="#593517"/>
<path d="M554.773 22.9492C553.109 22.9492 553.109 26.8153 554.773 26.8153C556.437 26.8153 556.437 22.9492 554.773 22.9492Z" fill="#593517"/>
<path d="M557.137 15.2371C555.288 15.2371 555.282 19.5481 557.137 19.5481C558.992 19.5481 558.992 15.2371 557.137 15.2371Z" fill="#593517"/>
<path d="M561.593 19.627C559.764 19.627 559.758 23.8885 561.593 23.8885C563.429 23.8885 563.429 19.627 561.593 19.627Z" fill="#593517"/>
<path d="M550.039 23.0383C548.098 23.0383 548.091 27.557 550.039 27.557C551.987 27.557 551.987 23.0383 550.039 23.0383Z" fill="#593517"/>
<path d="M543.602 23.3547C543.562 23.3547 543.562 23.4536 543.602 23.4536C543.642 23.4536 543.642 23.3547 543.602 23.3547Z" fill="#593517"/>
<path d="M536.669 17.145C534.754 17.145 534.754 21.5945 536.669 21.5945C538.584 21.5945 538.584 17.145 536.669 17.145Z" fill="#593517"/>
<path d="M531.446 20.6555C529.433 20.6555 529.433 25.3324 531.446 25.3324C533.46 25.3324 533.46 20.6555 531.446 20.6555Z" fill="#593517"/>
<path d="M526.878 25.9353C524.804 25.9353 524.804 30.7605 526.878 30.7605C528.951 30.7605 528.951 25.9353 526.878 25.9353Z" fill="#593517"/>
<path d="M521.595 18.8855C520.328 18.8855 520.328 21.832 521.595 21.832C522.863 21.832 522.863 18.8855 521.595 18.8855Z" fill="#593517"/>
<path d="M507.513 21.1892C506.74 21.1892 506.001 22.2076 506.034 23.404C506.067 24.6005 506.681 25.6189 507.513 25.6189C508.285 25.6189 509.025 24.6005 508.992 23.404C508.959 22.2076 508.345 21.1892 507.513 21.1892Z" fill="#593517"/>
<path d="M510.259 19.0732C510.22 19.0732 510.22 19.1721 510.259 19.1721C510.299 19.1721 510.299 19.0732 510.259 19.0732Z" fill="#593517"/>
<path d="M502.944 28.4863C501.01 28.4863 501.01 32.9852 502.944 32.9852C504.879 32.9852 504.879 28.4863 502.944 28.4863Z" fill="#593517"/>
<path d="M499.035 17.5408C497.325 17.5408 497.318 21.5255 499.035 21.5255C500.752 21.5255 500.752 17.5408 499.035 17.5408Z" fill="#593517"/>
<path d="M494.803 16.6807C492.994 16.6807 492.987 20.9027 494.803 20.9027C496.618 20.9027 496.618 16.6807 494.803 16.6807Z" fill="#593517"/>
<path d="M486.16 24.4026C484.893 24.4026 484.893 27.3491 486.16 27.3491C487.428 27.3491 487.428 24.4026 486.16 24.4026Z" fill="#593517"/>
<path d="M481.981 19.8149C479.888 19.8149 479.888 24.6797 481.981 24.6797C484.074 24.6797 484.074 19.8149 481.981 19.8149Z" fill="#593517"/>
<path d="M478.184 15.751C476.071 15.751 476.071 20.6651 478.184 20.6651C480.297 20.6651 480.297 15.751 478.184 15.751Z" fill="#593517"/>
<path d="M473.84 19.4785C473.801 19.4785 473.801 19.5774 473.84 19.5774C473.88 19.5774 473.88 19.4785 473.84 19.4785Z" fill="#593517"/>
<path d="M468.393 24.3435C466.016 24.3435 466.009 29.8806 468.393 29.8806C470.776 29.8806 470.776 24.3435 468.393 24.3435Z" fill="#593517"/>
<path d="M464.484 16.7004C463.111 16.7004 463.111 19.8942 464.484 19.8942C465.857 19.8942 465.857 16.7004 464.484 16.7004Z" fill="#593517"/>
<path d="M460.411 16.5222C459.249 16.5222 459.242 19.2314 460.411 19.2314C461.579 19.2314 461.579 16.5222 460.411 16.5222Z" fill="#593517"/>
<path d="M453.148 20.6157C451.88 20.6157 451.88 23.5622 453.148 23.5622C454.416 23.5622 454.416 20.6157 453.148 20.6157Z" fill="#593517"/>
<path d="M449.516 16.3147C448.81 16.3147 448.81 17.956 449.516 17.956C450.223 17.956 450.223 16.3147 449.516 16.3147Z" fill="#593517"/>
<path d="M444.347 15.5234C442.247 15.5234 442.241 20.4178 444.347 20.4178C446.453 20.4178 446.453 15.5234 444.347 15.5234Z" fill="#593517"/>
<path d="M444.4 20.4377C442.485 20.4377 442.485 24.8872 444.4 24.8872C446.315 24.8872 446.315 20.4377 444.4 20.4377Z" fill="#593517"/>
<path d="M436.866 16.552C435.374 16.552 435.367 20.0324 436.866 20.0324C438.364 20.0324 438.364 16.552 436.866 16.552Z" fill="#593517"/>
<path d="M426.19 28.427C426.117 28.427 426.117 28.5852 426.19 28.5852C426.262 28.5852 426.262 28.427 426.19 28.427Z" fill="#593517"/>
<path d="M427.233 23.1172C425.998 23.1172 425.998 25.9945 427.233 25.9945C428.468 25.9945 428.468 23.1172 427.233 23.1172Z" fill="#593517"/>
<path d="M427.893 16.6409C426.329 16.6409 426.329 20.2795 427.893 20.2795C429.458 20.2795 429.458 16.6409 427.893 16.6409Z" fill="#593517"/>
<path d="M417.989 21.1396C417.171 21.1396 416.378 22.2174 416.418 23.4929C416.458 24.7684 417.111 25.8462 417.989 25.8462C418.808 25.8462 419.6 24.7684 419.561 23.4929C419.521 22.2174 418.867 21.1396 417.989 21.1396Z" fill="#593517"/>
<path d="M411.117 21.6836C409.849 21.6836 409.849 24.6301 411.117 24.6301C412.384 24.6301 412.384 21.6836 411.117 21.6836Z" fill="#593517"/>
<path d="M407.208 15.9587C405.056 15.9587 405.056 20.9619 407.208 20.9619C409.36 20.9619 409.36 15.9587 407.208 15.9587Z" fill="#593517"/>
<path d="M401.76 20.7739C400.493 20.7739 400.493 23.7204 401.76 23.7204C403.028 23.7204 403.028 20.7739 401.76 20.7739Z" fill="#593517"/>
<path d="M397.581 23.6218C395.363 23.6218 395.356 28.7931 397.581 28.7931C399.806 28.7931 399.806 23.6218 397.581 23.6218Z" fill="#593517"/>
<path d="M393.342 16.9475C391.329 16.9475 391.329 21.6244 393.342 21.6244C395.356 21.6244 395.356 16.9475 393.342 16.9475Z" fill="#593517"/>
<path d="M386.852 20.8828C386.812 20.8828 386.812 20.9817 386.852 20.9817C386.892 20.9817 386.892 20.8828 386.852 20.8828Z" fill="#593517"/>
<path d="M383.221 22.5242C381.121 22.5242 381.115 27.4186 383.221 27.4186C385.327 27.4186 385.327 22.5242 383.221 22.5242Z" fill="#593517"/>
<path d="M378.705 19.1526C378.665 19.1526 378.665 19.2515 378.705 19.2515C378.745 19.2515 378.745 19.1526 378.705 19.1526Z" fill="#593517"/>
<path d="M374.803 17.4812C373.535 17.4812 373.535 20.4277 374.803 20.4277C376.07 20.4277 376.07 17.4812 374.803 17.4812Z" fill="#593517"/>
<path d="M374.908 21.8813C373.033 21.8813 373.033 26.2418 374.908 26.2418C376.783 26.2418 376.783 21.8813 374.908 21.8813Z" fill="#593517"/>
<path d="M361.928 21.9307C360.733 21.9307 360.733 24.7091 361.928 24.7091C363.123 24.7091 363.123 21.9307 361.928 21.9307Z" fill="#593517"/>
<path d="M365.89 16.3345C365.348 16.3345 364.827 17.0464 364.853 17.8868C364.879 18.7273 365.309 19.4392 365.89 19.4392C366.431 19.4392 366.953 18.7273 366.926 17.8868C366.9 17.0464 366.471 16.3345 365.89 16.3345Z" fill="#593517"/>
<path d="M364.952 24.8181C363.757 24.8181 363.757 27.5965 364.952 27.5965C366.147 27.5965 366.147 24.8181 364.952 24.8181Z" fill="#593517"/>
<path d="M350.143 26.9141C349.581 26.9141 349.04 27.6556 349.066 28.5257C349.093 29.3959 349.542 30.1374 350.143 30.1374C350.704 30.1374 351.245 29.3959 351.219 28.5257C351.192 27.6556 350.743 26.9141 350.143 26.9141Z" fill="#593517"/>
<path d="M349.139 18.6085C349.112 18.5294 349.086 18.4601 349.066 18.381C348.683 17.2242 347.567 17.2637 347.079 18.2031C346.603 19.1325 346.848 20.8035 347.706 21.0309C347.759 21.0507 347.818 21.0606 347.878 21.0804C348.855 21.3473 349.594 19.9729 349.145 18.6085H349.139Z" fill="#593517"/>
<path d="M340.8 20.4871C339.426 20.4871 339.426 23.6808 340.8 23.6808C342.173 23.6808 342.173 20.4871 340.8 20.4871Z" fill="#593517"/>
<path d="M333.095 23.5129C331.841 23.5129 331.841 26.4298 333.095 26.4298C334.35 26.4298 334.35 23.5129 333.095 23.5129Z" fill="#593517"/>
<path d="M329.239 17.2935C328.724 17.2935 328.222 17.9757 328.249 18.7766C328.275 19.5775 328.684 20.2597 329.239 20.2597C329.754 20.2597 330.256 19.5775 330.229 18.7766C330.203 17.9757 329.794 17.2935 329.239 17.2935Z" fill="#593517"/>
<path d="M322.749 25.6584C321.356 25.6584 321.356 28.9016 322.749 28.9016C324.142 28.9016 324.142 25.6584 322.749 25.6584Z" fill="#593517"/>
<path d="M317.136 26.489C316.318 26.489 316.318 28.3874 317.136 28.3874C317.955 28.3874 317.955 26.489 317.136 26.489Z" fill="#593517"/>
<path d="M316.331 19.637C316.172 18.7768 315.479 18.3417 314.958 18.7965L314.865 18.8756C314.073 19.5777 314.436 21.3475 315.321 21.397C315.36 21.397 315.393 21.397 315.433 21.397C316.047 21.4365 316.489 20.4675 316.338 19.6271L316.331 19.637Z" fill="#593517"/>
<path d="M308.719 24.2742C307.411 24.2742 307.411 27.3097 308.719 27.3097C310.026 27.3097 310.026 24.2742 308.719 24.2742Z" fill="#593517"/>
<path d="M306.196 17.5112C305.972 16.9278 305.615 16.7301 305.193 16.6509C304.691 16.5521 304.176 17.0267 303.998 17.7386C303.806 18.5197 304.011 19.0734 304.367 19.6172C304.942 20.4972 305.939 20.1611 306.249 19.0536C306.394 18.5494 306.381 17.9858 306.19 17.5112H306.196Z" fill="#593517"/>
<path d="M292.708 25.5002C292.12 25.5002 291.553 26.2814 291.579 27.191C291.605 28.1106 292.074 28.8818 292.708 28.8818C293.302 28.8818 293.863 28.1007 293.837 27.191C293.811 26.2715 293.342 25.5002 292.708 25.5002Z" fill="#593517"/>
<path d="M296.563 19.4094C296.035 19.4094 295.527 20.1114 295.546 20.9321C295.573 21.7528 295.989 22.4548 296.563 22.4548C297.091 22.4548 297.6 21.7528 297.58 20.9321C297.554 20.1114 297.138 19.4094 296.563 19.4094Z" fill="#593517"/>
<path d="M285.887 21.1697C285.366 21.1697 284.864 21.8618 284.89 22.6627C284.917 23.4735 285.326 24.1557 285.887 24.1557C286.409 24.1557 286.911 23.4636 286.884 22.6627C286.858 21.8519 286.448 21.1697 285.887 21.1697Z" fill="#593517"/>
<path d="M283.431 16.72C283.18 16.0674 282.526 15.7411 282.084 16.196C282.031 16.2454 281.972 16.3047 281.926 16.3739C281.503 16.8485 281.285 17.6396 281.576 18.3811C281.84 19.0535 282.46 19.3205 282.916 18.9052C282.975 18.8557 283.028 18.8063 283.081 18.747C283.517 18.302 283.715 17.4517 283.431 16.7299V16.72Z" fill="#593517"/>
<path d="M276.591 28.7236C277.094 28.7236 277.502 28.1127 277.502 27.3591C277.502 26.6055 277.094 25.9946 276.591 25.9946C276.088 25.9946 275.68 26.6055 275.68 27.3591C275.68 28.1127 276.088 28.7236 276.591 28.7236Z" fill="#593517"/>
<path d="M271.415 19.3501C271.954 19.3501 272.392 18.6949 272.392 17.8867C272.392 17.0785 271.954 16.4233 271.415 16.4233C270.875 16.4233 270.438 17.0785 270.438 17.8867C270.438 18.6949 270.875 19.3501 271.415 19.3501Z" fill="#593517"/>
<path d="M266.628 27.092C267.167 27.092 267.605 26.4369 267.605 25.6287C267.605 24.8205 267.167 24.1653 266.628 24.1653C266.088 24.1653 265.65 24.8205 265.65 25.6287C265.65 26.4369 266.088 27.092 266.628 27.092Z" fill="#593517"/>
<path d="M260.58 19.9927C260.052 19.9927 259.543 20.6947 259.563 21.5154C259.589 22.336 260.005 23.0381 260.58 23.0381C261.108 23.0381 261.616 22.336 261.597 21.5154C261.57 20.6947 261.154 19.9927 260.58 19.9927Z" fill="#593517"/>
<path d="M256.288 16.2749C255.126 16.2749 255.119 18.9841 256.288 18.9841C257.457 18.9841 257.457 16.2749 256.288 16.2749Z" fill="#593517"/>
<path d="M252.934 24.2148C252.38 24.2148 251.851 24.9465 251.871 25.8067C251.898 26.667 252.34 27.3987 252.934 27.3987C253.489 27.3987 254.017 26.667 253.997 25.8067C253.971 24.9465 253.528 24.2148 252.934 24.2148Z" fill="#593517"/>
<path d="M248.801 17.9561C248.253 17.9561 247.725 18.6778 247.751 19.5282C247.777 20.3785 248.213 21.1003 248.801 21.1003C249.349 21.1003 249.877 20.3785 249.851 19.5282C249.824 18.6778 249.388 17.9561 248.801 17.9561Z" fill="#593517"/>
<path d="M244.457 24.5017C243.13 24.5017 243.13 27.5867 244.457 27.5867C245.784 27.5867 245.784 24.5017 244.457 24.5017Z" fill="#593517"/>
<path d="M243.618 16.1661C243.618 16.1661 243.559 16.1266 243.526 16.1068C242.945 15.7113 242.278 15.9189 242.007 16.878C241.743 17.8075 242.1 18.7172 242.701 19.0434C242.734 19.0632 242.76 19.0731 242.793 19.0929C243.295 19.3599 243.863 18.8457 244.054 18.1634C244.239 17.501 244.1 16.4924 243.618 16.1661Z" fill="#593517"/>
<path d="M236.646 17.8374C235.26 17.8374 235.26 21.0608 236.646 21.0608C238.033 21.0608 238.033 17.8374 236.646 17.8374Z" fill="#593517"/>
<path d="M236.752 24.0469C235.953 24.0469 235.953 25.9058 236.752 25.9058C237.55 25.9058 237.55 24.0469 236.752 24.0469Z" fill="#593517"/>
<path d="M225.627 26.5286C225.158 25.6289 224.036 25.5498 223.672 26.7066C223.666 26.7363 223.653 26.7659 223.646 26.7857C223.21 28.1997 223.923 29.6037 224.947 29.3268L225.006 29.3071C225.845 29.0796 226.089 27.4284 225.62 26.5188L225.627 26.5286Z" fill="#593517"/>
<path d="M227.013 19.7952C225.897 19.7952 225.897 22.3857 227.013 22.3857C228.128 22.3857 228.128 19.7952 227.013 19.7952Z" fill="#593517"/>
<path d="M221.678 16.2551C220.496 16.2551 220.489 19.0138 221.678 19.0138C222.866 19.0138 222.866 16.2551 221.678 16.2551Z" fill="#593517"/>
<path d="M218.984 15.3555C217.453 15.3555 217.446 18.9249 218.984 18.9249C220.523 18.9249 220.523 15.3555 218.984 15.3555Z" fill="#593517"/>
<path d="M213.703 25.4111C213.663 25.4111 213.663 25.51 213.703 25.51C213.742 25.51 213.742 25.4111 213.703 25.4111Z" fill="#593517"/>
<path d="M209.794 25.2334C207.972 25.2334 207.972 29.4752 209.794 29.4752C211.616 29.4752 211.616 25.2334 209.794 25.2334Z" fill="#593517"/>
<path d="M202.419 19.7852C201.151 19.7852 201.151 22.7317 202.419 22.7317C203.686 22.7317 203.686 19.7852 202.419 19.7852Z" fill="#593517"/>
<path d="M200.445 21.3476C200.293 21.5849 200.141 21.753 199.956 21.9211C199.811 22.0496 199.731 22.3858 199.837 22.6132C199.897 22.7417 199.943 22.8011 200.035 22.8406C200.207 22.9296 200.405 22.7417 200.451 22.4847C200.511 22.1683 200.577 21.9013 200.689 21.6244C200.781 21.397 200.563 21.1498 200.445 21.3476Z" fill="#593517"/>
<path d="M209.959 17.5703C208.843 17.5703 208.843 20.1609 209.959 20.1609C211.075 20.1609 211.075 17.5703 209.959 17.5703Z" fill="#593517"/>
<path d="M196.371 27.7051C195.829 27.7051 195.308 28.417 195.334 29.2574C195.36 30.0979 195.79 30.8098 196.371 30.8098C196.912 30.8098 197.434 30.0979 197.407 29.2574C197.381 28.417 196.952 27.7051 196.371 27.7051Z" fill="#593517"/>
<path d="M190.534 20.7739C189.412 20.7739 189.405 23.3942 190.534 23.3942C191.663 23.3942 191.663 20.7739 190.534 20.7739Z" fill="#593517"/>
<path d="M187.563 16.1665C185.45 16.1665 185.45 21.0807 187.563 21.0807C189.676 21.0807 189.676 16.1665 187.563 16.1665Z" fill="#593517"/>
<path d="M180.465 22.4055C178.544 22.4055 178.538 26.8747 180.465 26.8747C182.393 26.8747 182.393 22.4055 180.465 22.4055Z" fill="#593517"/>
<path d="M178.709 18.0449C177.006 18.0449 177.006 22.0099 178.709 22.0099C180.413 22.0099 180.413 18.0449 178.709 18.0449Z" fill="#593517"/>
<path d="M165.557 24.6304C164.976 24.6304 164.422 25.3917 164.448 26.2915C164.475 27.1913 164.937 27.9526 165.557 27.9526C166.138 27.9526 166.693 27.1913 166.667 26.2915C166.64 25.3917 166.178 24.6304 165.557 24.6304Z" fill="#593517"/>
<path d="M171.222 16.3047C169.796 16.3047 169.796 19.617 171.222 19.617C172.648 19.617 172.648 16.3047 171.222 16.3047Z" fill="#593517"/>
<path d="M172.212 24.6697C171.037 24.6697 171.037 27.4086 172.212 27.4086C173.388 27.4086 173.388 24.6697 172.212 24.6697Z" fill="#593517"/>
<path d="M157.469 20.0818C156.743 20.0818 156.743 21.7726 157.469 21.7726C158.195 21.7726 158.195 20.0818 157.469 20.0818Z" fill="#593517"/>
<path d="M155.046 18.5889C154.023 18.5889 154.016 20.9718 155.046 20.9718C156.076 20.9718 156.076 18.5889 155.046 18.5889Z" fill="#593517"/>
<path d="M151.745 27.5767C150.094 27.5767 150.088 31.423 151.745 31.423C153.402 31.423 153.402 27.5767 151.745 27.5767Z" fill="#593517"/>
<path d="M148.391 27.4778C146.581 27.4778 146.575 31.6998 148.391 31.6998C150.206 31.6998 150.206 27.4778 148.391 27.4778Z" fill="#593517"/>
<path d="M142.779 18.3613C140.923 18.3613 140.923 22.6723 142.779 22.6723C144.634 22.6723 144.634 18.3613 142.779 18.3613Z" fill="#593517"/>
<path d="M139.095 18.0251C137.233 18.0251 137.233 22.3559 139.095 22.3559C140.957 22.3559 140.957 18.0251 139.095 18.0251Z" fill="#593517"/>
<path d="M135.403 23.2458C133.852 23.2458 133.845 26.8647 135.403 26.8647C136.962 26.8647 136.962 23.2458 135.403 23.2458Z" fill="#593517"/>
<path d="M128.57 25.53C128.266 24.4621 127.395 23.9974 126.715 24.5906C126.088 25.1443 125.916 26.3309 126.246 27.2702C126.649 28.4073 127.712 28.4963 128.299 27.6657C128.689 27.1219 128.768 26.2419 128.57 25.53Z" fill="#593517"/>
<path d="M123.909 18.8262C123.869 18.8262 123.869 18.925 123.909 18.925C123.949 18.925 123.949 18.8262 123.909 18.8262Z" fill="#593517"/>
<path d="M119.888 17.7581C117.933 17.7581 117.933 22.2965 119.888 22.2965C121.842 22.2965 121.842 17.7581 119.888 17.7581Z" fill="#593517"/>
<path d="M118.845 26.6966C118.805 26.6966 118.772 26.6966 118.732 26.6867C118.429 26.657 118.25 27.2107 118.389 27.5766C118.547 27.9721 118.911 27.9424 119.069 27.5766C119.089 27.537 119.109 27.4876 119.129 27.448C119.274 27.1119 119.076 26.7163 118.838 26.6966H118.845Z" fill="#593517"/>
<path d="M128.695 17.946C128.029 17.946 127.388 18.826 127.421 19.8544C127.454 20.8926 127.982 21.7627 128.695 21.7627C129.362 21.7627 130.003 20.8827 129.97 19.8544C129.937 18.8162 129.409 17.946 128.695 17.946Z" fill="#593517"/>
<path d="M107.508 29.7024C106.887 29.7024 106.287 30.5231 106.32 31.4822C106.346 32.4512 106.841 33.2619 107.508 33.2619C108.129 33.2619 108.73 32.4413 108.697 31.4822C108.67 30.5132 108.175 29.7024 107.508 29.7024Z" fill="#593517"/>
<path d="M107.647 21.0113C107.581 20.072 107.066 19.3205 106.405 19.5875C105.804 19.8347 105.488 20.9322 105.818 21.7529C105.983 22.1583 106.161 22.3461 106.313 22.6329C106.755 23.4437 107.587 22.7318 107.607 21.832C107.614 21.5156 107.673 21.387 107.647 21.0113Z" fill="#593517"/>
<path d="M102.886 18.1438C101.619 18.1438 101.619 21.0903 102.886 21.0903C104.154 21.0903 104.154 18.1438 102.886 18.1438Z" fill="#593517"/>
<path d="M97.9347 16.7595C96.053 16.7595 96.053 21.1397 97.9347 21.1397C99.8164 21.1397 99.823 16.7595 97.9347 16.7595Z" fill="#593517"/>
<path d="M96.3432 25.9946C96.3036 25.9946 96.3036 26.0935 96.3432 26.0935C96.3828 26.0935 96.3828 25.9946 96.3432 25.9946Z" fill="#593517"/>
<path d="M92.7121 27.9919C91.0615 27.9919 91.0549 31.8382 92.7121 31.8382C94.3693 31.8382 94.3693 27.9919 92.7121 27.9919Z" fill="#593517"/>
<path d="M80.8278 27.2505C78.8933 27.2505 78.8933 31.7494 80.8278 31.7494C82.7624 31.7494 82.7624 27.2505 80.8278 27.2505Z" fill="#593517"/>
<path d="M84.2876 18.668C83.865 17.5902 82.769 18.0154 82.6832 19.2019C82.6501 19.281 82.6171 19.3601 82.5907 19.4392C82.3332 20.1511 82.8746 21.1102 83.3764 20.6158C83.3764 20.6158 83.3764 20.6158 83.3896 20.6059C84.0565 20.7641 84.6771 19.6666 84.2876 18.6778V18.668Z" fill="#593517"/>
<path d="M87.1002 22.4944C86.3937 22.4944 86.3937 24.1357 87.1002 24.1357C87.8066 24.1357 87.8066 22.4944 87.1002 22.4944Z" fill="#593517"/>
<path d="M74.661 27.3391C72.9509 27.3391 72.9443 31.3238 74.661 31.3238C76.3776 31.3238 76.3776 27.3391 74.661 27.3391Z" fill="#593517"/>
<path d="M68.6655 28.4666C68.6258 28.4666 68.6258 28.5654 68.6655 28.5654C68.7051 28.5654 68.7051 28.4666 68.6655 28.4666Z" fill="#593517"/>
<path d="M66.1898 17.5605C65.655 17.5605 65.3447 18.0945 65.2654 18.7075C65.041 18.4307 64.7438 18.2626 64.3741 18.2626C62.499 18.2626 62.499 22.623 64.3741 22.623C65.3249 22.623 65.7936 21.4958 65.7738 20.3884C65.8927 20.4675 66.0313 20.5169 66.1898 20.5169C67.4575 20.5169 67.4575 17.5704 66.1898 17.5704V17.5605Z" fill="#593517"/>
<path d="M71.914 20.6555C71.0358 20.6555 71.0358 22.6924 71.914 22.6924C72.7921 22.6924 72.7921 20.6555 71.914 20.6555Z" fill="#593517"/>
<path d="M64.4864 28.9412C62.3737 28.9412 62.3737 33.8553 64.4864 33.8553C66.5992 33.8553 66.5992 28.9412 64.4864 28.9412Z" fill="#593517"/>
<path d="M51.5987 27.9028C51.1827 27.8138 50.78 27.8138 50.4961 28.3477C50.2254 28.8619 50.2584 29.554 50.4829 30.0879C50.8526 30.9679 51.6845 31.0668 52.1137 30.2362C52.49 29.5046 52.3118 28.061 51.5987 27.9028Z" fill="#593517"/>
<path d="M51.9946 19.9729C51.9549 19.9729 51.9549 20.0718 51.9946 20.0718C52.0342 20.0718 52.0342 19.9729 51.9946 19.9729Z" fill="#593517"/>
<path d="M53.4273 17.6199C52.2124 17.6199 52.2124 20.4477 53.4273 20.4477C54.6421 20.4477 54.6421 17.6199 53.4273 17.6199Z" fill="#593517"/>
<path d="M42.4735 23.6709C41.6746 23.6709 40.9153 24.719 40.9483 25.9549C40.9879 27.1909 41.6152 28.239 42.4735 28.239C43.2724 28.239 44.0317 27.1909 43.9987 25.9549C43.9591 24.719 43.3318 23.6709 42.4735 23.6709Z" fill="#593517"/>
<path d="M55.9558 24.5215C54.4438 24.5215 54.4372 28.0415 55.9558 28.0415C57.4744 28.0415 57.4744 24.5215 55.9558 24.5215Z" fill="#593517"/>
</svg>
