<svg width="942" height="70" viewBox="0 0 942 70" fill="none" xmlns="http://www.w3.org/2000/svg">
<path d="M921.768 8H20.2319C9.05813 8 0 21.7314 0 38.67V39.33C0 56.2686 9.05813 70 20.2319 70H921.768C932.942 70 942 56.2686 942 39.33V38.67C942 21.7314 932.942 8 921.768 8Z" fill="#23200C"/>
<path d="M921.768 0H20.2319C9.05813 0 0 13.7314 0 30.67V31.33C0 48.2686 9.05813 62 20.2319 62H921.768C932.942 62 942 48.2686 942 31.33V30.67C942 13.7314 932.942 0 921.768 0Z" fill="#DE9B26"/>
<path d="M942 30.67V31H0V30.67C0 13.73 9.05718 0 20.2319 0H921.768C932.943 0 942 13.73 942 30.67Z" fill="#F4D133"/>
<path d="M116.266 7.18013C99.9983 3.93013 83.1109 5.63013 66.7183 5.62013C58.677 5.62013 50.6357 5.62013 42.5944 5.61013C38.4649 5.61013 34.3354 5.60013 30.2059 5.61013C26.0632 5.61013 21.7754 5.14013 17.7646 6.87013C15.2315 7.96013 15.2249 13.5701 17.7646 14.6701C21.5907 16.3201 25.6146 15.9201 29.5594 15.9301C33.6889 15.9301 37.8184 15.9301 41.9479 15.9301C50.2069 15.9301 58.4659 15.9301 66.7249 15.9201C83.1175 15.9201 100.005 17.6101 116.272 14.3601C119.293 13.7601 119.3 7.82013 116.272 7.21013L116.266 7.18013Z" fill="#FFF2C7"/>
<path d="M147.93 8.01003C147.567 7.94003 147.197 7.90003 146.834 7.85003C144.552 6.85003 141.946 7.10003 139.605 7.07003C136.966 7.04003 134.202 6.77003 131.636 7.77003C129.492 8.61003 129.314 13.96 131.636 14.63C134.248 15.38 136.953 15.02 139.605 15.15C142.243 15.27 144.981 15.99 147.567 15.07C148.332 14.8 148.813 14.14 149.051 13.33C150.37 11.83 149.994 8.42003 147.923 8.02003L147.93 8.01003Z" fill="#FFF2C7"/>
<path d="M162.647 10.63C162.541 9.43999 161.967 8.34999 161.182 8.04999C160.153 7.65999 159.283 8.33999 158.32 8.73999C157.416 9.11999 156.848 10.48 156.974 11.87C157.093 13.2 157.884 14.42 158.821 14.34C159.764 14.26 160.839 14.53 161.677 13.72C162.376 13.04 162.766 11.89 162.654 10.63H162.647Z" fill="#FFF2C7"/>
</svg>
